<svg xmlns="http://www.w3.org/2000/svg" version="1.0" width="1024.000000pt" height="1024.000000pt" viewBox="0 0 1024.000000 1024.000000" preserveAspectRatio="xMidYMid meet">

<g transform="translate(0.000000,1024.000000) scale(0.100000,-0.100000)" fill="#ffffff" stroke="none">
<path d="M6083 8668 c-33 -46 -150 -204 -260 -353 -171 -231 -439 -600 -781 -1077 -71 -100 -88 -118 -110 -118 -34 0 -1041 -66 -1216 -80 -160 -12 -226 -13 -226 -1 0 5 42 60 94 121 l94 112 -126 171 c-69 95 -194 265 -279 378 -84 114 -153 211 -153 217 0 6 4 22 10 37 9 25 16 18 147 -157 75 -101 205 -276 289 -390 l152 -207 143 157 c79 86 211 226 293 309 141 145 148 153 125 162 -27 10 -1039 412 -1111 442 l-48 19 -14 -23 c-8 -12 -104 -166 -214 -342 -110 -176 -319 -508 -466 -738 -146 -230 -266 -421 -266 -423 0 -2 58 25 130 61 71 36 131 65 132 65 2 0 2 -92 1 -205 l-2 -205 29 -15 c16 -8 40 -30 53 -47 29 -39 187 -435 187 -468 0 -13 48 -131 106 -264 59 -133 115 -260 125 -283 l18 -43 -102 0 -102 0 -74 193 c-40 105 -90 221 -111 257 -22 36 -73 149 -114 252 -41 103 -82 200 -90 216 -18 34 -13 42 25 42 37 0 44 -12 124 -212 37 -93 70 -168 74 -168 10 1 41 27 41 35 0 5 -34 95 -75 199 -50 125 -85 199 -101 214 -39 35 -100 29 -254 -23 -177 -61 -174 -59 -167 -102 4 -20 8 -37 10 -40 2 -2 55 15 117 37 62 22 114 40 114 40 1 0 2 -11 2 -25 1 -14 41 -122 88 -239 47 -118 86 -218 86 -223 0 -5 20 -31 45 -59 41 -47 48 -64 90 -215 25 -90 45 -167 45 -171 0 -4 -148 -8 -329 -8 l-329 0 -81 155 c-44 85 -83 165 -87 179 -10 42 28 112 82 145 26 17 52 32 58 34 10 3 -14 94 -33 126 -5 7 -93 -26 -262 -100 -140 -62 -256 -113 -257 -115 -2 -1 9 -27 25 -56 25 -46 31 -52 53 -48 14 3 51 5 82 5 66 0 101 -21 135 -81 21 -36 63 -190 63 -228 0 -14 -28 -16 -285 -16 l-285 0 -23 38 c-92 144 -107 203 -72 271 14 27 15 38 5 62 -7 16 -14 29 -16 29 -7 0 -218 -80 -222 -84 -11 -12 34 -68 67 -86 45 -23 73 -63 95 -139 29 -99 49 -91 -224 -91 l-240 0 0 -50 0 -50 4660 0 4660 0 0 49 0 49 -62 6 c-35 4 -79 9 -99 12 l-37 5 -6 177 c-3 97 -9 405 -12 684 l-7 507 -316 304 c-174 167 -425 407 -559 533 l-242 229 -123 41 -122 40 -6 120 c-4 65 -7 133 -8 149 -1 28 -8 33 -96 74 l-96 44 -107 -19 -107 -19 4 -98 c3 -82 1 -97 -12 -97 -8 0 -269 88 -579 196 -676 235 -1107 384 -1111 384 -2 0 -30 -37 -64 -82z m595 -737 c263 -311 533 -631 602 -713 l125 -148 -3 -795 -2 -795 -24 0 -23 0 -6 242 c-4 133 -7 487 -7 787 l0 546 -153 181 c-83 99 -296 350 -472 558 -551 651 -565 668 -565 692 0 12 3 30 7 40 6 15 8 15 26 -7 10 -13 233 -278 495 -588z m-238 -465 l0 -183 -97 -7 c-54 -4 -129 -9 -168 -12 l-70 -6 5 183 5 184 115 11 c63 6 136 12 163 13 l47 1 0 -184z m-390 -29 l0 -184 -112 -6 c-62 -4 -134 -7 -160 -7 l-48 0 0 175 c0 96 1 175 3 176 3 1 269 26 295 28 l22 1 0 -183z m-2990 -127 l0 -110 -80 0 -80 0 0 64 c0 35 -3 84 -6 110 l-7 46 87 0 86 0 0 -110z m190 61 c0 -26 3 -76 6 -110 l7 -61 -87 0 -86 0 0 110 0 110 80 0 80 0 0 -49z m3190 -324 l0 -184 -107 -6 c-58 -4 -134 -7 -168 -7 l-62 0 5 178 c2 97 5 178 7 180 3 3 205 19 273 21 l52 1 0 -183z m-390 -22 l0 -185 -88 0 c-49 0 -124 -3 -166 -6 l-77 -7 7 179 c4 98 7 180 8 181 0 1 64 5 141 11 77 5 148 10 158 11 16 1 17 -14 17 -184z m-2986 119 c3 -9 6 -58 6 -110 l0 -94 -79 0 -78 0 -6 83 c-4 45 -7 94 -7 110 l0 27 79 0 c63 0 80 -3 85 -16z m198 -86 c2 -57 2 -106 0 -110 -2 -5 -39 -8 -83 -8 l-79 0 0 64 c0 35 -3 84 -6 110 l-7 46 86 0 85 0 4 -102z m1451 -415 c21 -71 37 -135 37 -145 0 -37 -109 -50 -150 -18 -33 26 -81 25 -115 -2 -23 -18 -26 -27 -22 -57 3 -20 8 -43 11 -52 5 -12 -14 -20 -101 -43 -59 -16 -118 -30 -130 -33 -18 -4 -23 1 -32 32 -21 76 -66 93 -146 56 -53 -24 -136 -100 -172 -157 -25 -40 -65 -66 -80 -50 -10 10 47 158 89 231 57 98 186 223 270 263 110 53 156 58 315 36 39 -6 44 -4 52 19 8 20 20 27 48 32 21 4 45 8 53 10 8 1 20 3 25 4 6 0 27 -56 48 -126z m-1513 -200 c30 -58 87 -148 127 -200 39 -51 106 -143 149 -203 42 -61 78 -110 80 -110 2 0 26 14 52 30 27 17 53 30 58 30 9 0 128 -230 122 -235 -2 -1 -24 -14 -50 -29 -27 -16 -48 -31 -48 -36 0 -4 7 -25 16 -46 9 -22 27 -67 40 -101 l24 -63 -88 0 -88 0 -31 70 c-29 64 -34 70 -55 65 -20 -5 -27 0 -46 40 -12 25 -29 48 -37 51 -19 8 -155 -33 -155 -46 0 -5 10 -30 22 -54 18 -37 19 -47 8 -60 -32 -40 -120 -6 -166 63 -26 40 -74 160 -74 186 0 30 57 78 151 126 54 28 99 55 99 60 0 5 -22 53 -48 107 -27 53 -59 126 -72 162 -13 36 -27 70 -31 76 -6 7 -36 3 -96 -12 -132 -34 -133 -34 -133 26 0 89 58 169 141 195 24 8 51 14 59 14 9 0 36 -41 70 -106z m2850 -388 l0 -495 -205 0 -205 0 0 485 0 485 38 1 c123 5 358 16 365 17 4 1 7 -221 7 -493z m-923 314 c15 -6 38 -19 50 -31 21 -19 22 -19 51 -2 26 15 34 15 61 4 29 -12 31 -15 31 -66 0 -48 -3 -56 -25 -66 -18 -8 -35 -8 -67 1 -52 15 -94 2 -107 -31 -5 -13 -14 -106 -21 -208 -7 -102 -13 -186 -14 -187 0 0 -17 -3 -36 -5 l-35 -3 -1 70 c0 39 -2 127 -2 198 -2 112 -4 129 -22 147 -21 21 -84 28 -95 10 -3 -5 -15 -10 -26 -10 -24 0 -39 36 -39 93 0 59 11 71 54 64 25 -4 50 0 79 13 47 22 121 26 164 9z m-628 -236 c60 -218 111 -435 145 -621 l6 -33 -108 3 -107 3 -43 180 c-49 207 -117 505 -125 552 l-6 32 62 15 c34 8 78 15 98 15 l37 1 41 -147z m879 -260 c-2 -22 -10 -30 -35 -38 -22 -6 -33 -15 -33 -27 0 -14 8 -18 33 -18 17 0 45 -7 61 -15 15 -8 44 -15 63 -15 74 0 93 -37 93 -182 l0 -88 -310 0 -310 0 0 124 0 124 31 11 c18 6 81 11 140 11 61 0 110 4 114 10 3 6 15 10 26 10 14 0 19 7 19 25 0 20 -6 27 -29 31 -20 4 -30 13 -34 30 -2 13 -2 26 1 29 3 3 43 5 89 5 l84 0 -3 -27z" fill="#ffffff"/>
<path d="M5295 8044 c-110 -13 -360 -42 -555 -64 l-355 -40 -175 -178 c-244 -247 -598 -647 -585 -660 2 -2 293 15 647 38 631 41 643 43 664 65 20 22 522 714 593 818 l32 47 -33 -1 c-18 -1 -123 -12 -233 -25z" fill="#ffffff"/>
<path d="M1717 6474 c-4 -4 -7 -16 -7 -27 0 -19 -1 -19 -18 -4 -25 23 -35 21 -26 -5 7 -23 6 -23 -14 -5 -20 18 -24 17 -200 -53 -186 -74 -239 -101 -248 -124 -3 -7 12 -40 32 -72 21 -33 57 -104 81 -159 23 -55 47 -99 53 -97 13 3 494 213 499 218 4 3 -95 235 -128 302 -9 18 -20 30 -24 26z" fill="#ffffff"/>
<path d="M885 6044 c-55 -18 -112 -36 -127 -39 -16 -3 -28 -10 -28 -17 0 -6 20 -48 45 -93 l45 -83 111 42 c61 23 111 45 111 49 2 15 -46 177 -52 175 -3 0 -50 -16 -105 -34z" fill="#ffffff"/>
<path d="M6614 4830 c-114 -23 -224 -112 -264 -215 -34 -88 -33 -191 3 -267 47 -97 123 -152 302 -218 133 -49 165 -76 165 -136 0 -34 -5 -47 -26 -63 -57 -45 -149 -36 -284 30 -45 21 -83 39 -85 39 -2 0 -36 -46 -75 -101 l-73 -102 24 -18 c97 -74 262 -129 390 -129 155 0 259 39 343 130 118 128 117 330 -4 451 -53 53 -118 88 -272 150 -151 60 -187 104 -135 165 43 49 169 42 291 -17 22 -11 43 -16 47 -12 10 11 109 198 109 207 0 4 -37 25 -82 46 -128 62 -259 82 -374 60z" fill="#ffffff"/>
<path d="M7715 4824 c-89 -19 -216 -81 -278 -134 -65 -57 -135 -158 -165 -239 -19 -51 -26 -91 -29 -181 -8 -192 36 -310 163 -436 338 -338 938 -185 1045 266 19 80 17 233 -5 304 -75 253 -296 419 -571 432 -59 2 -114 -2 -160 -12z m271 -283 c59 -26 122 -87 156 -151 31 -60 37 -186 13 -260 -23 -68 -99 -151 -167 -180 -166 -72 -348 -8 -425 148 -38 77 -40 201 -5 277 25 55 91 128 137 152 90 48 200 53 291 14z" fill="#ffffff"/>
<path d="M1045 4793 c-69 -179 -425 -1114 -425 -1118 0 -3 67 -5 149 -5 146 0 150 0 157 23 3 12 20 59 36 105 l30 82 214 0 215 0 13 -32 c7 -18 26 -66 40 -105 l28 -73 149 0 c82 0 149 2 149 5 0 6 -409 1063 -430 1113 -9 21 -13 22 -164 22 -137 0 -155 -2 -161 -17z m224 -499 c34 -88 61 -163 61 -167 0 -5 -54 -7 -121 -6 -118 1 -121 2 -115 23 7 27 110 315 112 313 1 -1 29 -74 63 -163z" fill="#ffffff"/>
<path d="M1920 4240 l0 -570 140 0 140 0 0 327 c0 287 2 325 15 313 8 -8 117 -154 243 -325 l229 -310 127 -3 126 -3 0 571 0 570 -140 0 -141 0 3 -325 c2 -179 1 -325 -2 -324 -3 0 -113 145 -246 322 l-241 322 -126 3 -127 3 0 -571z" fill="#ffffff"/>
<path d="M3140 4240 l0 -572 283 5 c314 5 347 10 471 75 133 70 219 173 262 317 14 45 18 92 18 185 0 109 -4 134 -27 199 -49 138 -135 233 -262 292 -125 57 -158 61 -462 66 l-283 5 0 -572z m499 300 c81 -14 127 -37 178 -92 53 -58 68 -104 68 -208 0 -65 -5 -96 -21 -131 -31 -65 -78 -114 -140 -145 -48 -23 -71 -28 -175 -32 l-119 -5 0 312 0 311 73 0 c39 0 101 -5 136 -10z" fill="#ffffff"/>
<path d="M4340 4240 l0 -570 380 0 380 0 0 130 0 130 -235 0 -235 0 0 100 0 100 200 0 200 0 0 120 0 120 -200 0 -200 0 0 95 0 95 230 0 230 0 0 125 0 125 -375 0 -375 0 0 -570z" fill="#ffffff"/>
<path d="M5280 4240 l0 -570 143 0 143 0 -4 200 -5 200 46 0 45 0 114 -197 115 -198 168 -3 c146 -2 167 -1 161 13 -3 8 -64 108 -136 221 -71 113 -130 209 -130 213 0 4 15 12 33 19 51 18 115 78 145 136 24 46 27 61 27 161 0 91 -4 118 -22 157 -29 62 -97 134 -155 164 -94 48 -143 54 -425 54 l-263 0 0 -570z m539 286 c33 -30 47 -88 32 -136 -18 -61 -43 -72 -176 -78 l-115 -5 0 122 0 123 119 -4 c100 -2 122 -6 140 -22z" fill="#ffffff"/>
<path d="M8630 4240 l0 -570 140 0 140 0 0 328 c1 311 2 326 18 306 9 -12 118 -159 241 -328 l223 -306 124 0 124 0 0 570 0 570 -140 0 -140 0 -2 -317 -3 -317 -196 265 c-107 145 -212 288 -233 317 l-38 52 -129 0 -129 0 0 -570z" fill="#ffffff"/>
<path d="M2855 3245 c-69 -24 -104 -81 -91 -148 8 -44 42 -74 129 -117 52 -25 72 -40 72 -54 0 -42 -47 -43 -150 -1 -9 4 -65 -65 -65 -80 0 -3 26 -18 58 -33 149 -69 302 -2 289 127 -6 58 -51 103 -137 135 -70 26 -95 50 -70 66 23 15 77 12 111 -6 17 -8 32 -14 33 -12 1 2 13 21 26 42 23 38 23 39 4 53 -24 17 -110 43 -143 43 -14 -1 -44 -7 -66 -15z" fill="#ffffff"/>
<path d="M6983 3249 c-71 -21 -103 -102 -67 -171 16 -30 16 -31 -14 -55 -80 -62 -58 -188 39 -227 47 -19 81 -16 152 16 l47 21 24 -22 c19 -18 33 -22 76 -19 l53 3 -47 52 c-45 49 -46 53 -32 75 8 13 24 47 35 76 l21 52 -50 0 c-28 0 -50 -5 -50 -10 0 -6 -7 -27 -15 -47 l-16 -37 -27 30 -27 29 38 36 c71 68 43 172 -52 199 -41 11 -45 11 -88 -1z m82 -100 c7 -22 -18 -59 -42 -59 -19 0 -33 41 -21 63 13 24 55 22 63 -4z m-30 -209 c44 -45 39 -60 -19 -60 -55 0 -90 65 -48 89 25 15 24 15 67 -29z" fill="#ffffff"/>
<path d="M3810 3020 l0 -232 118 4 c99 3 126 8 174 30 79 37 110 84 115 181 4 65 2 77 -24 127 -24 46 -38 60 -87 84 -52 27 -69 30 -177 34 l-119 4 0 -232z m257 88 c29 -30 41 -97 24 -140 -14 -38 -67 -68 -118 -68 l-43 0 0 121 0 121 56 -4 c42 -4 61 -11 81 -30z" fill="#ffffff"/>
<path d="M4960 3018 l0 -228 60 0 60 0 0 127 0 128 93 -127 92 -127 53 -1 52 0 0 230 0 230 -60 0 -60 0 0 -120 c0 -66 -3 -120 -7 -119 -5 0 -47 53 -94 117 l-85 117 -52 0 -52 1 0 -228z" fill="#ffffff"/>
<path d="M5779 3222 c-34 -17 -65 -44 -84 -71 -27 -38 -30 -52 -33 -124 -2 -70 1 -88 20 -122 66 -113 220 -154 356 -95 l42 19 0 115 0 116 -95 0 -95 0 0 -55 0 -55 40 0 c36 0 40 -3 40 -24 0 -21 -6 -26 -43 -31 -91 -14 -162 48 -154 134 6 57 34 93 87 110 39 13 47 12 91 -6 l47 -21 37 38 37 38 -26 17 c-80 53 -186 60 -267 17z" fill="#ffffff"/>
<path d="M3380 3015 l0 -225 60 0 60 0 0 225 0 225 -60 0 -60 0 0 -225z" fill="#ffffff"/>
<path d="M4520 3015 l0 -225 60 0 60 0 0 225 0 225 -60 0 -60 0 0 -225z" fill="#ffffff"/>
<path d="M1411 2426 c-49 -18 -111 -74 -132 -120 -23 -51 -25 -143 -3 -194 56 -135 235 -182 366 -96 l38 24 -39 36 -40 35 -48 -17 c-100 -35 -173 11 -173 110 0 58 16 88 60 111 36 19 81 19 124 1 33 -14 35 -13 71 24 l36 37 -33 20 c-74 44 -157 54 -227 29z" fill="#ffffff"/>
<path d="M2081 2426 c-49 -18 -111 -74 -132 -120 -24 -54 -25 -148 0 -202 56 -123 229 -171 350 -97 71 44 105 100 109 181 4 76 -9 117 -54 171 -58 70 -182 100 -273 67z m144 -110 c70 -29 88 -129 34 -190 -51 -58 -126 -61 -180 -6 -24 24 -29 37 -29 80 0 62 11 85 53 110 38 24 75 25 122 6z" fill="#ffffff"/>
<path d="M3475 2426 c-50 -22 -77 -60 -83 -114 -4 -42 0 -52 24 -81 16 -19 58 -47 99 -66 79 -36 93 -49 75 -70 -16 -19 -55 -19 -114 1 -26 9 -48 15 -49 13 -2 -2 -15 -21 -30 -41 l-27 -36 33 -20 c54 -33 106 -45 168 -39 103 9 149 54 149 143 0 39 -5 51 -33 79 -18 18 -60 42 -94 55 -68 24 -88 41 -79 65 7 18 86 21 118 4 19 -10 25 -7 49 22 16 19 29 38 29 42 0 4 -24 19 -52 32 -60 28 -135 32 -183 11z" fill="#ffffff"/>
<path d="M6049 2412 c-73 -38 -112 -100 -117 -187 -5 -76 10 -125 51 -171 62 -72 162 -99 258 -70 30 8 67 26 82 38 l29 23 -42 34 c-40 32 -42 33 -75 17 -18 -9 -52 -16 -75 -16 -34 0 -48 6 -76 34 -30 30 -34 40 -34 88 0 60 16 90 60 113 40 20 83 19 130 -5 l39 -20 31 39 31 40 -33 24 c-75 56 -175 63 -259 19z" fill="#ffffff"/>
<path d="M6600 2383 l0 -53 55 0 55 0 0 -175 0 -175 60 0 60 0 0 175 0 175 55 0 55 0 0 50 0 49 -170 3 -170 3 0 -52z" fill="#ffffff"/>
<path d="M7791 2427 c-157 -60 -205 -259 -92 -380 47 -52 98 -72 181 -72 86 0 139 22 185 77 44 53 57 94 53 170 -3 55 -9 75 -34 110 -46 65 -109 100 -191 104 -40 2 -82 -2 -102 -9z m149 -112 c81 -42 79 -179 -2 -221 -44 -23 -113 -14 -145 19 -31 30 -44 92 -29 138 22 66 110 98 176 64z" fill="#ffffff"/>
<path d="M2690 2205 l0 -225 61 0 60 0 -3 125 c-2 69 -1 125 2 125 3 -1 46 -57 95 -125 l90 -124 53 -1 52 0 0 225 0 225 -60 0 -60 0 0 -115 c0 -63 -3 -115 -7 -114 -5 0 -45 52 -91 115 l-84 114 -54 0 -54 0 0 -225z" fill="#ffffff"/>
<path d="M3970 2380 l0 -50 60 0 60 0 0 -175 0 -175 60 0 60 0 0 175 0 175 58 0 57 0 0 50 0 50 -177 0 -178 0 0 -50z" fill="#ffffff"/>
<path d="M4610 2205 l0 -225 60 0 60 0 0 80 c0 100 12 99 72 -6 l42 -74 68 0 68 0 -50 85 -50 84 36 34 c31 28 37 41 41 83 6 65 -20 111 -77 141 -38 20 -58 23 -157 23 l-113 0 0 -225z m214 109 c38 -37 7 -84 -55 -84 l-39 0 0 50 0 50 39 0 c23 0 46 -7 55 -16z" fill="#ffffff"/>
<path d="M5250 2270 c0 -179 7 -209 59 -253 104 -87 294 -47 329 71 7 23 12 104 12 191 l0 151 -60 0 -60 0 0 -149 c0 -135 -2 -151 -21 -175 -26 -33 -88 -37 -119 -6 -18 18 -20 33 -20 175 l0 155 -60 0 -60 0 0 -160z" fill="#ffffff"/>
<path d="M7230 2205 l0 -225 60 0 60 0 0 225 0 225 -60 0 -60 0 0 -225z" fill="#ffffff"/>
<path d="M8410 2205 l0 -225 55 0 54 0 3 128 3 127 94 -127 95 -128 48 0 48 0 0 225 0 225 -60 0 -60 0 0 -117 0 -117 -87 117 -87 117 -53 0 -53 0 0 -225z" fill="#ffffff"/>
</g>
</svg>